<?xml version="1.0" standalone="no"?>
<!DOCTYPE svg PUBLIC "-//W3C//DTD SVG 20010904//EN"
 "http://www.w3.org/TR/2001/REC-SVG-20010904/DTD/svg10.dtd">
<svg version="1.0" xmlns="http://www.w3.org/2000/svg"
 width="396.000000pt" height="724.000000pt" viewBox="0 0 396.000000 724.000000"
 preserveAspectRatio="xMidYMid meet">

<g transform="translate(0.000000,724.000000) scale(0.100000,-0.100000)"
fill="rgb(242, 247, 248)" stroke="none">
<path d="M2215 7160 c-27 -10 -61 -19 -73 -19 -26 -1 -156 -87 -201 -133 -16
-17 -50 -71 -75 -120 -37 -72 -46 -99 -46 -142 0 -88 26 -155 78 -204 44 -41
46 -46 50 -105 2 -34 -1 -81 -7 -104 -10 -37 -18 -45 -64 -67 -28 -14 -96 -34
-150 -46 -102 -21 -176 -53 -262 -112 -164 -112 -282 -204 -303 -235 -13 -19
-43 -94 -67 -167 -50 -153 -59 -173 -168 -356 -100 -168 -131 -237 -162 -353
-34 -130 -44 -221 -54 -483 -7 -191 -13 -249 -36 -349 -49 -218 -227 -838
-341 -1187 -46 -141 -92 -291 -103 -335 -48 -189 -70 -412 -81 -833 -6 -265
-10 -314 -28 -372 -11 -38 -19 -68 -16 -68 12 0 295 147 332 172 24 16 68 64
99 106 69 94 138 168 178 189 18 10 54 16 88 16 69 -1 174 -47 245 -109 53
-45 101 -52 224 -35 221 32 327 71 472 175 43 31 81 55 83 52 3 -2 9 -51 14
-108 14 -146 29 -190 135 -395 103 -201 124 -262 155 -444 17 -97 20 -149 16
-239 -3 -76 0 -143 9 -196 14 -86 104 -374 134 -435 21 -41 55 -59 111 -59 97
0 164 83 184 227 10 73 -9 181 -60 335 -48 148 -71 254 -115 533 -55 342 -53
399 30 811 32 159 48 212 94 320 109 255 139 405 140 704 0 113 -3 239 -7 280
l-8 75 46 -68 c37 -54 49 -84 61 -145 8 -42 37 -158 63 -257 74 -274 76 -281
58 -309 -9 -13 -41 -37 -71 -55 -33 -18 -62 -43 -71 -62 -23 -44 -45 -154 -45
-228 0 -64 0 -65 -50 -112 -27 -27 -72 -60 -99 -74 -61 -30 -75 -56 -94 -166
-14 -81 -14 -89 10 -204 22 -102 24 -136 20 -231 -7 -136 1 -172 59 -247 25
-32 52 -74 61 -93 31 -63 88 -58 165 14 61 57 104 117 124 174 12 36 13 57 3
134 -8 69 -8 126 0 230 14 166 20 188 81 279 26 39 53 83 61 100 10 21 26 33
55 41 59 17 94 37 136 78 120 117 289 402 317 534 27 130 -7 666 -51 802 -26
81 -116 282 -247 554 -58 120 -103 228 -107 255 -7 46 10 179 24 193 25 25
251 -181 294 -267 36 -70 40 -113 27 -250 -15 -156 -15 -151 20 -184 17 -16
31 -36 31 -44 0 -22 55 -65 98 -77 89 -24 153 1 173 70 11 36 10 57 -10 152
-13 60 -26 149 -31 196 -10 105 -27 157 -92 287 -63 123 -85 205 -98 360 -17
198 -44 279 -163 498 -69 129 -87 189 -93 320 -6 142 -19 216 -50 286 -49 110
-115 154 -302 202 -145 37 -163 44 -234 87 -51 30 -62 33 -105 28 -42 -6 -54
-3 -95 23 -66 42 -82 69 -69 118 14 50 54 88 109 103 39 10 43 14 37 33 -16
53 -16 105 -2 148 21 60 2 147 -67 311 -9 21 -16 52 -16 71 0 63 -74 153 -165
201 -58 30 -82 31 -150 6z"/>
</g>
</svg>
